<?xml version="1.0" encoding="UTF-8" standalone="no"?>
<!-- Created with Inkscape (http://www.inkscape.org/) -->

<svg
   width="100"
   height="100"
   viewBox="0 0 26.458333 26.458334"
   version="1.1"
   id="svg5"
   inkscape:version="1.1 (c68e22c387, 2021-05-23)"
   sodipodi:docname="logo.svg"
   xmlns:inkscape="http://www.inkscape.org/namespaces/inkscape"
   xmlns:sodipodi="http://sodipodi.sourceforge.net/DTD/sodipodi-0.dtd"
   xmlns:xlink="http://www.w3.org/1999/xlink"
   xmlns="http://www.w3.org/2000/svg"
   xmlns:svg="http://www.w3.org/2000/svg">
  <sodipodi:namedview
     id="namedview7"
     pagecolor="#505050"
     bordercolor="#ffffff"
     borderopacity="1"
     inkscape:pageshadow="0"
     inkscape:pageopacity="0"
     inkscape:pagecheckerboard="1"
     inkscape:document-units="mm"
     showgrid="false"
     units="px"
     width="100px"
     inkscape:zoom="8.1537903"
     inkscape:cx="36.486099"
     inkscape:cy="47.891837"
     inkscape:window-width="1920"
     inkscape:window-height="1017"
     inkscape:window-x="-8"
     inkscape:window-y="-8"
     inkscape:window-maximized="1"
     inkscape:current-layer="layer1" />
  <defs
     id="defs2">
    <linearGradient
       inkscape:collect="always"
       id="linearGradient2505">
      <stop
         style="stop-color:#ff7d00;stop-opacity:1"
         offset="0"
         id="stop2501" />
      <stop
         style="stop-color:#58169b;stop-opacity:1"
         offset="1"
         id="stop2503" />
    </linearGradient>
    <linearGradient
       inkscape:collect="always"
       xlink:href="#linearGradient2505"
       id="linearGradient7489"
       x1="348.50586"
       y1="310.48047"
       x2="348.50586"
       y2="410.06293"
       gradientUnits="userSpaceOnUse"
       gradientTransform="matrix(0.25440699,0,0,0.25440699,3.0173424,3.1392)" />
  </defs>
  <g
     inkscape:label="Layer 1"
     inkscape:groupmode="layer"
     id="layer1">
    <g
       id="g11106"
       transform="translate(-78.450507,-81.618788)"
       inkscape:export-filename="C:\Users\AntiMach\Desktop\mania skinner\icon.png"
       inkscape:export-xdpi="245.76003"
       inkscape:export-ydpi="245.76003">
      <path
         id="path1404"
         style="fill:url(#linearGradient7489);fill-opacity:1;stroke:none;stroke-width:45.1142;stroke-linecap:round;stroke-linejoin:round;stroke-opacity:0.5"
         d="m 91.679672,81.61879 c -7.300232,0 -13.229164,5.928932 -13.229164,13.229164 0,7.300236 5.928932,13.229166 13.229164,13.229166 7.300231,0 13.229168,-5.92893 13.229168,-13.229166 0,-7.300232 -5.928937,-13.229164 -13.229168,-13.229164 z m 0.63403,0.524714 a 12.720349,12.720349 0 0 1 0.222606,0.0164 12.72035,12.72035 0 0 0 -0.222606,-0.0164 z m 0.632041,0.0477 a 12.720349,12.720349 0 0 1 0.273786,0.03379 12.72035,12.72035 0 0 0 -0.273786,-0.03379 z m 0.628068,0.07901 a 12.720349,12.720349 0 0 1 0.29068,0.05018 12.72035,12.72035 0 0 0 -0.29068,-0.05018 z m 0.625584,0.110308 a 12.720349,12.720349 0 0 1 0.283722,0.0636 12.72035,12.72035 0 0 0 -0.283722,-0.0636 z m 0.619122,0.141613 a 12.720349,12.720349 0 0 1 0.281239,0.07752 12.72035,12.72035 0 0 0 -0.281239,-0.07752 z m 0.613162,0.172918 a 12.720349,12.720349 0 0 1 0.260368,0.08596 12.72035,12.72035 0 0 0 -0.260368,-0.08596 z m 0.60819,0.204716 a 12.720349,12.720349 0 0 1 0.253412,0.09789 12.72035,12.72035 0 0 0 -0.253412,-0.09789 z m 0.582353,0.229565 a 12.720349,12.720349 0 0 1 0.279749,0.123725 12.72035,12.72035 0 0 0 -0.279749,-0.123725 z m 0.573907,0.258879 a 12.720349,12.720349 0 0 1 0.277265,0.139626 12.72035,12.72035 0 0 0 -0.277265,-0.139626 z m 0.570428,0.292667 a 12.720349,12.720349 0 0 1 0.252917,0.143104 12.72035,12.72035 0 0 0 -0.252917,-0.143104 z m 0.556516,0.322481 a 12.720349,12.720349 0 0 1 0.229561,0.145091 12.72035,12.72035 0 0 0 -0.229561,-0.145091 z m 0.530678,0.342852 a 12.720349,12.720349 0 0 1 0.239997,0.16944 12.72035,12.72035 0 0 0 -0.239997,-0.16944 z m 0.506328,0.364718 a 12.720349,12.720349 0 0 1 0.246457,0.192792 12.72035,12.72035 0 0 0 -0.246457,-0.192792 z m 0.49689,0.397012 a 12.720349,12.720349 0 0 1 0.234531,0.202233 12.72035,12.72035 0 0 0 -0.234531,-0.202233 z m -8.177297,0.07155 c 5.378558,0 9.668458,4.2899 9.668458,9.668461 0,5.378556 -4.289872,9.667966 -9.668458,9.667966 -5.378587,0 -9.667962,-4.28938 -9.667962,-9.667966 0,-5.378591 4.289403,-9.668461 9.667962,-9.668461 z m 8.648838,0.344841 a 12.720349,12.720349 0 0 1 0.23305,0.221612 12.72035,12.72035 0 0 0 -0.23305,-0.221612 z m 0.45367,0.442231 a 12.720349,12.720349 0 0 1 0.22111,0.232546 12.72035,12.72035 0 0 0 -0.22111,-0.232546 z m 0.43527,0.469561 a 12.720349,12.720349 0 0 1 0.20223,0.234531 12.72035,12.72035 0 0 0 -0.20223,-0.234531 z m 0.40645,0.484964 a 12.720349,12.720349 0 0 1 0.1928,0.246457 12.72035,12.72035 0 0 0 -0.1928,-0.246457 z m 0.38807,0.512788 a 12.720349,12.720349 0 0 1 0.16944,0.239997 12.72035,12.72035 0 0 0 -0.16944,-0.239997 z m -4.8064,0.417387 a 0.50886488,0.50886488 0 0 0 0,4.96e-4 h -4.96e-4 c -0.521095,0.02241 -1.019903,0.2804 -1.644205,0.700614 -0.62449,0.420339 -1.365333,1.025459 -2.264321,1.830039 -1.161432,1.039484 -1.896004,1.746909 -2.368669,2.350782 -0.472666,0.60387 -0.683719,1.15976 -0.683719,1.71178 0,0.55712 0.18227,1.077637 0.48894,1.512032 -0.547673,-0.224471 -1.091651,-0.372643 -1.599984,-0.368692 h -4.96e-4 c -0.971975,0.0068 -1.870774,0.513584 -2.161963,1.43104 -0.08171,0.257444 -0.130967,0.281175 -0.133165,0.282234 -0.0023,10e-4 -0.126987,0.02943 -0.44422,-0.05019 -0.42143,-0.105777 -0.827904,-0.108487 -1.161724,0.12323 -0.33382,0.231716 -0.448865,0.655935 -0.41391,1.017628 0.06992,0.723385 0.54753,1.485655 1.340109,2.278242 0.520474,0.52046 0.912624,0.86681 1.403215,1.04694 0.490589,0.18013 0.992722,0.14779 1.624824,0.0452 0.884522,-0.14363 1.83053,-0.51428 2.37811,-1.06185 0.511742,-0.51176 0.908454,-1.347248 1.059366,-2.109797 0.106925,-0.540256 0.158015,-1.017068 -0.09888,-1.446444 -0.001,-0.0015 -0.003,-0.0023 -0.004,-0.004 0.118459,0.02678 0.232352,0.08377 0.357261,0.08398 0.538285,10e-4 0.995525,-0.26197 1.552282,-0.652416 a 0.50886488,0.50886488 0 0 0 0.0015,0 c 0.422484,-0.295916 0.828232,-0.787029 1.278494,-1.4052 0.450263,-0.618173 0.919661,-1.356999 1.345574,-2.102834 0.425913,-0.745835 0.807053,-1.496142 1.078744,-2.144073 0.271692,-0.647934 0.47972,-1.120027 0.403475,-1.655635 -0.05439,-0.382064 -0.150004,-0.716693 -0.372666,-0.992783 -0.222664,-0.276092 -0.602815,-0.435639 -0.959493,-0.420367 z m 5.17361,0.123724 a 12.720349,12.720349 0 0 1 0.14509,0.229564 12.72035,12.72035 0 0 0 -0.14509,-0.229564 z m 0.32446,0.533163 a 12.720349,12.720349 0 0 1 0.14311,0.252916 12.72035,12.72035 0 0 0 -0.14311,-0.252916 z m 0.29615,0.546079 a 12.720349,12.720349 0 0 1 0.13962,0.277266 12.72035,12.72035 0 0 0 -0.13962,-0.277266 z m 0.27478,0.571421 a 12.720349,12.720349 0 0 1 0.12372,0.279749 12.72035,12.72035 0 0 0 -0.12372,-0.279749 z m 0.2554,0.608689 a 12.720349,12.720349 0 0 1 0.0979,0.253415 12.72035,12.72035 0 0 0 -0.0979,-0.253415 z m 0.21664,0.601235 a 12.720349,12.720349 0 0 1 0.086,0.260371 12.72035,12.72035 0 0 0 -0.086,-0.260371 z m 0.18137,0.592293 a 12.720349,12.720349 0 0 1 0.0775,0.281239 12.72035,12.72035 0 0 0 -0.0775,-0.281239 z m 0.15552,0.616639 a 12.720349,12.720349 0 0 1 0.0636,0.283723 12.72035,12.72035 0 0 0 -0.0636,-0.283723 z m 0.12373,0.618627 a 12.720349,12.720349 0 0 1 0.0502,0.29068 12.72035,12.72035 0 0 0 -0.0502,-0.29068 z m 0.0954,0.644959 a 12.720349,12.720349 0 0 1 0.0338,0.273788 12.72035,12.72035 0 0 0 -0.0338,-0.273788 z m 0.0651,0.683223 a 12.720349,12.720349 0 0 1 0.0164,0.222606 12.72035,12.72035 0 0 0 -0.0164,-0.222606 z m 0.0323,0.856637 a 12.720349,12.720349 0 0 1 -0.1272,1.772899 12.72035,12.72035 0 0 0 0.1272,-1.772899 z m -0.13466,1.833023 a 12.720349,12.720349 0 0 1 -0.36869,1.695879 12.72035,12.72035 0 0 0 0.36869,-1.695879 z m -0.39701,1.794263 a 12.720349,12.720349 0 0 1 -0.59726,1.60247 12.72035,12.72035 0 0 0 0.59726,-1.60247 z m -0.64745,1.71178 a 12.720349,12.720349 0 0 1 -0.82135,1.50309 12.72035,12.72035 0 0 0 0.82135,-1.50309 z m -0.87253,1.5811 a 12.720349,12.720349 0 0 1 -1.04744,1.39874 12.72035,12.72035 0 0 0 1.04744,-1.39874 z m -1.07229,1.42657 a 12.720349,12.720349 0 0 1 -1.24967,1.24967 12.72035,12.72035 0 0 0 1.24967,-1.24967 z m -1.277498,1.27452 a 12.720349,12.720349 0 0 1 -1.398742,1.04744 12.72035,12.72035 0 0 0 1.398742,-1.04744 z m -1.476754,1.09862 a 12.720349,12.720349 0 0 1 -1.503087,0.82136 12.72035,12.72035 0 0 0 1.503087,-0.82136 z m -1.612403,0.87154 a 12.720349,12.720349 0 0 1 -1.602467,0.59726 12.72035,12.72035 0 0 0 1.602467,-0.59726 z m -1.700851,0.62558 a 12.720349,12.720349 0 0 1 -1.69588,0.3687 12.72035,12.72035 0 0 0 1.69588,-0.3687 z m -1.756004,0.37615 a 12.720349,12.720349 0 0 1 -1.772898,0.1272 12.72035,12.72035 0 0 0 1.772898,-0.1272 z" />
      <path
         id="path10983"
         style="color:#000000;fill:#000000;fill-opacity:0.75;stroke-width:0.254407;stroke-linecap:round;stroke-linejoin:round;-inkscape-stroke:none"
         d="m 91.679672,81.61879 c -7.300232,0 -13.229164,5.928932 -13.229164,13.229164 0,7.300236 5.928932,13.229166 13.229164,13.229166 7.300232,0 13.229168,-5.92893 13.229168,-13.229166 0,-7.300232 -5.928936,-13.229164 -13.229168,-13.229164 z m 0,0.508814 A 12.720349,12.720349 0 0 1 104.40002,94.847954 12.720349,12.720349 0 0 1 91.679672,107.5683 12.720349,12.720349 0 0 1 78.959322,94.847954 12.720349,12.720349 0 0 1 91.679672,82.127604 Z m 0,2.543075 c -5.650331,0 -10.176776,4.526941 -10.176776,10.177275 0,5.650336 4.526445,10.176776 10.176776,10.176776 5.650331,0 10.177278,-4.52644 10.177278,-10.176776 0,-5.650334 -4.526947,-10.177275 -10.177278,-10.177275 z m 0,0.508814 c 5.378558,0 9.668458,4.2899 9.668458,9.668461 0,5.378556 -4.289872,9.667966 -9.668458,9.667966 -5.378587,0 -9.667962,-4.28938 -9.667962,-9.667966 0,-5.378592 4.289404,-9.668461 9.667962,-9.668461 z m 5.525898,2.671773 a 0.50886488,0.50886488 0 0 0 0,4.96e-4 c 0,0 -4.97e-4,0 -4.97e-4,0 -0.521094,0.02241 -1.019901,0.280399 -1.644203,0.700613 -0.624491,0.420341 -1.365334,1.025459 -2.264322,1.830039 -1.161431,1.039484 -1.896004,1.746909 -2.368669,2.350781 -0.472666,0.603871 -0.683719,1.159761 -0.683719,1.711781 0,0.557121 0.18227,1.077637 0.48894,1.512032 -0.547672,-0.224471 -1.09165,-0.372645 -1.599984,-0.368692 h -4.96e-4 c -0.971975,0.0068 -1.870773,0.513582 -2.161963,1.43104 -0.08171,0.257444 -0.130966,0.281175 -0.133164,0.282234 -0.0023,0.0011 -0.126988,0.02942 -0.44422,-0.05018 -0.421431,-0.105778 -0.827904,-0.108487 -1.161724,0.12323 -0.33382,0.231716 -0.448866,0.655934 -0.413911,1.017628 0.06991,0.723385 0.54753,1.485646 1.34011,2.278232 0.520473,0.52046 0.912624,0.86681 1.403215,1.04694 0.490588,0.18012 0.992719,0.14779 1.624824,0.0452 0.884522,-0.14362 1.830529,-0.51428 2.37811,-1.06185 0.511742,-0.51175 0.908453,-1.347241 1.059366,-2.109786 0.106924,-0.540256 0.158014,-1.017069 -0.09888,-1.446444 -0.0011,-0.0015 -0.003,-0.0023 -0.0039,-0.0039 0.118459,0.02678 0.232353,0.08377 0.357261,0.08397 0.538285,0.0011 0.995525,-0.261971 1.552283,-0.652417 a 0.50886488,0.50886488 0 0 0 0.0014,0 c 0.422484,-0.295915 0.828232,-0.787026 1.278494,-1.405199 0.450262,-0.618174 0.919661,-1.356999 1.345575,-2.102834 0.425912,-0.745834 0.807052,-1.496142 1.078744,-2.144073 0.271691,-0.647934 0.47972,-1.120027 0.403474,-1.655636 -0.05438,-0.382063 -0.150004,-0.716692 -0.372666,-0.992782 -0.222664,-0.276092 -0.602815,-0.435639 -0.959494,-0.420366 z m 0.02187,0.508315 c 0.463236,-0.01984 0.711874,0.312035 0.80645,0.976385 0.150217,1.055228 -2.639768,5.940735 -3.894117,6.819302 v -4.96e-4 c -1.068175,0.749365 -1.452862,0.748508 -2.527174,-0.0039 -0.546696,-0.382907 -0.859619,-1.00395 -0.859619,-1.705819 0,-0.88402 0.573401,-1.616388 2.882948,-3.683434 1.779371,-1.592512 2.914477,-2.372521 3.591512,-2.401462 z m -8.090837,7.737549 c 0.561046,-0.0044 1.206579,0.1619 1.860351,0.5113 1.202394,0.642589 1.330292,0.85623 1.126942,1.883706 -0.126131,0.637323 -0.539997,1.46917 -0.91974,1.848924 -0.379741,0.37974 -1.324863,0.79341 -2.099853,0.91925 -1.212913,0.19682 -1.572762,0.0645 -2.586802,-0.94956 -1.480568,-1.480571 -1.618767,-2.910005 -0.247948,-2.565935 0.719219,0.180497 0.988473,0.05112 1.186074,-0.571423 0.221676,-0.698452 0.860978,-1.070683 1.680976,-1.076262 z" />
    </g>
  </g>
</svg>
